<svg xmlns="http://www.w3.org/2000/svg" viewBox="0 0 24 24" fill="#00a8f3">
  <path d="M12.031 0C5.385 0 0 5.385 0 12.031c0 2.126.549 4.195 1.594 6.015L.016 24l6.109-1.602c1.764.957 3.753 1.463 5.906 1.463 6.646 0 12.031-5.385 12.031-12.031C24.062 5.385 18.677 0 12.031 0zm6.262 17.15c-.266.75-1.523 1.424-2.112 1.504-.551.074-1.264.131-4.053-1.025-3.566-1.479-5.857-5.127-6.033-5.361-.176-.234-1.439-1.92-1.439-3.664 0-1.744.893-2.604 1.213-2.957.32-.354.697-.443.928-.443.23 0 .461.002.664.01.219.008.514-.084.8.611.293.709.996 2.451 1.084 2.629.088.178.146.387.031.621-.115.234-.176.381-.352.586-.176.205-.365.438-.527.598-.176.176-.363.367-.152.73.211.363.939 1.559 2.023 2.527 1.398 1.25 2.553 1.637 2.91 1.814.357.178.566.146.779-.092.213-.238.922-1.066 1.17-1.432.248-.365.496-.305.818-.186.322.119 2.037.957 2.389 1.135.352.178.586.266.672.414.086.148.086.857-.18 1.608z"/>
</svg>
